<svg xmlns="http://www.w3.org/2000/svg" version="1.1" xmlns:xlink="http://www.w3.org/1999/xlink" xmlns:svgjs="http://svgjs.dev/svgjs" width="500" height="500"><svg xmlns="http://www.w3.org/2000/svg" xmlns:xlink="http://www.w3.org/1999/xlink" width="500" zoomAndPan="magnify" viewBox="0 0 375 374.999991" height="500" preserveAspectRatio="xMidYMid meet" version="1.0"><defs><g></g></defs><rect x="-37.5" width="450" fill="#ffffff" y="-37.499999" height="449.999989" fill-opacity="1"></rect><rect x="-37.5" width="450" fill="#07363c" y="-37.499999" height="449.999989" fill-opacity="1"></rect><g fill="#e4c19d" fill-opacity="1"><g transform="translate(128.982251, 209.910328)"><g><path d="M 62.5 -48.8125 L 27.640625 -48.8125 L 21.5 -34.609375 C 20.007812 -31.128906 19.265625 -28.53125 19.265625 -26.8125 C 19.265625 -25.425781 19.910156 -24.207031 21.203125 -23.15625 C 22.503906 -22.101562 25.34375 -21.441406 29.71875 -21.171875 L 29.71875 -18.671875 L 1.328125 -18.671875 L 1.328125 -21.171875 C 5.085938 -21.828125 7.523438 -22.679688 8.640625 -23.734375 C 10.898438 -25.835938 13.390625 -30.15625 16.109375 -36.6875 L 47.8125 -110.8125 L 50.140625 -110.8125 L 81.515625 -35.859375 C 84.003906 -29.828125 86.285156 -25.925781 88.359375 -24.15625 C 90.429688 -22.382812 93.296875 -21.390625 96.953125 -21.171875 L 96.953125 -18.671875 L 61.421875 -18.671875 L 61.421875 -21.171875 C 65.023438 -21.335938 67.445312 -21.929688 68.6875 -22.953125 C 69.9375 -23.972656 70.5625 -25.203125 70.5625 -26.640625 C 70.5625 -28.578125 69.675781 -31.648438 67.90625 -35.859375 Z M 60.59375 -53.703125 L 45.328125 -90.140625 L 29.71875 -53.703125 Z M 60.59375 -53.703125 "></path></g></g></g><path stroke-linecap="butt" transform="matrix(2.723839, 0, 0, 2.723839, 153.013823, 120.4855)" fill="none" stroke-linejoin="miter" d="M 18.709896 14.311879 C 22.997847 14.311879 26.707857 15.943881 29.841359 19.207887 C 32.983467 22.471893 34.555237 26.537559 34.555237 31.407753 C 34.555237 36.43283 32.97056 40.608922 29.802639 43.93316 C 26.634718 47.248793 22.807112 48.906609 18.319821 48.906609 C 13.76226 48.906609 9.934654 47.287513 6.835569 44.050755 C 3.74509 40.803959 2.200567 36.620697 2.200567 31.499535 C 2.200567 26.239266 3.984584 21.955618 7.551184 18.648589 C 10.667478 15.757449 14.387526 14.311879 18.709896 14.311879 Z M 18.228039 16.108803 C 15.276667 16.108803 12.907538 17.207321 11.119218 19.402924 C 8.887763 22.129143 7.773469 26.12167 7.773469 31.381939 C 7.773469 36.789921 8.93222 40.943067 11.249721 43.841377 C 13.010793 46.055624 15.346937 47.161313 18.253853 47.161313 C 21.361542 47.161313 23.927142 45.955237 25.949219 43.543085 C 27.971296 41.120895 28.982335 37.301893 28.982335 32.084647 C 28.982335 26.417094 27.875212 22.202282 25.6624 19.441645 C 23.87408 17.220228 21.39596 16.108803 18.228039 16.108803 Z M 18.228039 16.108803 " stroke="#07363c" stroke-width="2.599998" stroke-opacity="1" stroke-miterlimit="4"></path><g fill="#e4c19d" fill-opacity="1"><g transform="translate(153.013823, 270.296633)"><g><path d="M 50.96875 -110.8125 C 62.644531 -110.8125 72.753906 -106.367188 81.296875 -97.484375 C 89.847656 -88.609375 94.125 -77.53125 94.125 -64.25 C 94.125 -50.582031 89.804688 -39.222656 81.171875 -30.171875 C 72.546875 -21.128906 62.117188 -16.609375 49.890625 -16.609375 C 37.492188 -16.609375 27.078125 -21.019531 18.640625 -29.84375 C 10.203125 -38.664062 5.984375 -50.050781 5.984375 -64 C 5.984375 -78.332031 10.851562 -90.007812 20.59375 -99.03125 C 29.050781 -106.882812 39.175781 -110.8125 50.96875 -110.8125 Z M 49.640625 -105.921875 C 41.617188 -105.921875 35.171875 -102.929688 30.296875 -96.953125 C 24.210938 -89.535156 21.171875 -78.660156 21.171875 -64.328125 C 21.171875 -49.609375 24.320312 -38.289062 30.625 -30.375 C 35.445312 -24.34375 41.8125 -21.328125 49.71875 -21.328125 C 58.1875 -21.328125 65.171875 -24.617188 70.671875 -31.203125 C 76.179688 -37.796875 78.9375 -48.203125 78.9375 -62.421875 C 78.9375 -77.859375 75.921875 -89.34375 69.890625 -96.875 C 65.023438 -102.90625 58.273438 -105.921875 49.640625 -105.921875 Z M 49.640625 -105.921875 "></path></g></g></g></svg><style>@media (prefers-color-scheme: light) { :root { filter: none; } }
@media (prefers-color-scheme: dark) { :root { filter: none; } }
</style></svg>